#N canvas 168 104 1148 607 10;
#X obj -256 -1 ctlin;
#X floatatom -284 26 5 0 0 0 - - -;
#X floatatom -236 28 5 0 0 0 - - -;
#X floatatom 259 269 5 0 0 0 - - -;
#X obj 269 248 ctlin 41 0;
#X floatatom 233 247 5 0 0 0 - - -;
#X obj 233 268 * 2;
#X obj 135 148 osc~ 200;
#X obj 158 217 dac~;
#X floatatom 162 126 5 0 0 0 - - -;
#X obj 162 188 *~;
#X floatatom 135 105 5 0 0 0 - - -;
#X obj 135 126 * 2;
#X floatatom 54 127 5 0 0 0 - - -;
#X floatatom 27 106 5 0 0 0 - - -;
#X obj 27 127 * 2;
#X floatatom -95 127 5 0 0 0 - - -;
#X floatatom -122 106 5 0 0 0 - - -;
#X obj -122 127 * 2;
#X obj 450 460 dac~;
#X floatatom 473 334 5 0 0 0 - - -;
#X obj 452 393 *~;
#X floatatom 425 310 5 0 0 0 - - -;
#X obj 64 106 ctlin 44 0;
#X obj 27 84 ctlin 17 0;
#X obj 172 105 ctlin 42 0;
#X obj 135 83 ctlin 18 0;
#X obj 233 225 ctlin 19 0;
#X obj 462 310 ctlin 45 0;
#X obj 425 288 ctlin 20 0;
#X obj 425 353 noise~;
#X obj 453 425 *~;
#X obj 39 447 line~;
#X obj -13 461 *~;
#X obj 39 364 hradio 16 1 0 8 empty empty empty 0 -8 0 10 -262144 -1
-1 0;
#X obj 82 280 metro 500;
#X obj 39 308 f;
#X obj 76 336 + 1;
#X obj -18 534 dac~;
#X obj -137 257 dac~;
#X obj -133 228 *~;
#X msg 130 451 0 100;
#X obj 40 207 bng 15 250 50 0 empty empty empty 17 7 0 10 -262144 -1
-1;
#X floatatom 78 201 5 0 0 0 - - -;
#X obj 78 179 ctlin 0 0;
#X msg -13 433 0.2 100;
#X obj -51 324 noise~;
#X obj 39 336 mod 8;
#X obj 39 393 select 0 1 2 3 4 5 6 7;
#X obj 78 222 * 1;
#X obj 565 432 line~;
#X msg 31 241 0;
#X floatatom 544 377 5 0 0 0 - - -;
#X obj 241 373 phasor~;
#X obj 349 379 phasor~;
#X obj 355 347 + 0.5;
#X msg 344 314 0;
#X obj 305 425 -~;
#X obj 242 315 sig~ 220;
#X floatatom 232 291 5 0 0 0 - - -;
#X obj 305 555 dac~;
#X obj 308 450 *~;
#X obj 319 507 line~;
#X obj 307 534 *~;
#X msg 319 483 0.02 100;
#X obj 202 168 osc~ 200;
#X obj 215 146 + 2;
#X obj -185 205 line~;
#X floatatom -203 171 5 0 0 0 - - -;
#X obj -115 193 osc~ 200;
#X obj -115 173 osc~ 200;
#X obj -115 153 osc~ 200;
#X obj -153 126 * 4;
#X obj -61 279 dac~;
#X obj -58 258 *~;
#X obj -101 216 *~ 2;
#X floatatom -249 197 5 0 0 0 - - -;
#X obj -242 224 osc~;
#X obj 347 451 / 127;
#X obj 489 356 * 5e-05;
#X obj -204 149 * 0.05;
#X obj -13 150 ctlin 60 0;
#X obj -14 170 bng 15 250 50 0 empty empty empty 17 7 0 10 -262144
-1 -1;
#X floatatom -225 339 5 0 0 0 - - -;
#X obj -15 497 *~;
#X obj -85 461 line~;
#X floatatom -106 406 5 0 0 0 - - -;
#X obj -225 317 ctlin 1 0;
#X obj -161 385 * 0.005;
#X floatatom -175 26 5 0 0 0 - - -;
#X obj -122 84 ctlin 3 1;
#X obj -84 105 ctlin 12 1;
#X connect 0 0 1 0;
#X connect 0 1 2 0;
#X connect 0 2 89 0;
#X connect 3 0 61 1;
#X connect 3 0 56 0;
#X connect 3 0 78 0;
#X connect 4 0 3 0;
#X connect 5 0 6 0;
#X connect 6 0 59 0;
#X connect 7 0 10 0;
#X connect 9 0 10 1;
#X connect 10 0 8 0;
#X connect 10 0 8 1;
#X connect 11 0 12 0;
#X connect 12 0 7 0;
#X connect 12 0 66 0;
#X connect 13 0 42 0;
#X connect 14 0 15 0;
#X connect 16 0 80 0;
#X connect 17 0 18 0;
#X connect 17 0 69 0;
#X connect 17 0 72 0;
#X connect 18 0 70 0;
#X connect 20 0 21 1;
#X connect 21 0 31 0;
#X connect 22 0 79 0;
#X connect 23 0 13 0;
#X connect 24 0 14 0;
#X connect 25 0 9 0;
#X connect 26 0 11 0;
#X connect 27 0 5 0;
#X connect 28 0 20 0;
#X connect 29 0 22 0;
#X connect 30 0 21 0;
#X connect 31 0 19 0;
#X connect 31 0 19 1;
#X connect 32 0 33 1;
#X connect 33 0 84 0;
#X connect 34 0 48 0;
#X connect 35 0 36 0;
#X connect 36 0 37 0;
#X connect 36 0 47 0;
#X connect 37 0 36 1;
#X connect 40 0 39 0;
#X connect 40 0 39 1;
#X connect 41 0 32 0;
#X connect 42 0 35 0;
#X connect 43 0 49 0;
#X connect 44 0 43 0;
#X connect 45 0 32 0;
#X connect 46 0 33 0;
#X connect 47 0 34 0;
#X connect 48 0 45 0;
#X connect 48 1 41 0;
#X connect 48 2 45 0;
#X connect 48 3 41 0;
#X connect 48 4 45 0;
#X connect 48 5 41 0;
#X connect 48 6 45 0;
#X connect 48 7 41 0;
#X connect 49 0 35 1;
#X connect 50 0 31 1;
#X connect 51 0 35 0;
#X connect 52 0 50 0;
#X connect 53 0 57 0;
#X connect 54 0 57 1;
#X connect 55 0 54 1;
#X connect 56 0 53 1;
#X connect 56 0 55 0;
#X connect 57 0 61 0;
#X connect 58 0 53 0;
#X connect 58 0 54 0;
#X connect 59 0 58 0;
#X connect 61 0 63 0;
#X connect 62 0 63 1;
#X connect 63 0 60 0;
#X connect 63 0 60 1;
#X connect 64 0 62 0;
#X connect 65 0 10 0;
#X connect 66 0 65 0;
#X connect 67 0 40 1;
#X connect 67 0 75 0;
#X connect 68 0 67 0;
#X connect 70 0 40 0;
#X connect 71 0 40 0;
#X connect 72 0 71 0;
#X connect 74 0 73 0;
#X connect 74 0 73 1;
#X connect 75 0 74 0;
#X connect 76 0 77 1;
#X connect 76 0 77 0;
#X connect 77 0 40 0;
#X connect 78 0 64 0;
#X connect 79 0 52 0;
#X connect 80 0 68 0;
#X connect 81 0 82 0;
#X connect 82 0 51 0;
#X connect 82 0 41 0;
#X connect 83 0 88 0;
#X connect 84 0 38 0;
#X connect 84 0 38 1;
#X connect 85 0 84 1;
#X connect 86 0 85 0;
#X connect 87 0 83 0;
#X connect 88 0 86 0;
#X connect 90 0 17 0;
#X connect 91 0 16 0;
