#N canvas 242 86 516 399 10;
#X floatatom 215 240 5 0 0 0 - - -;
#X obj 133 147 fiddle~ 2048 1 4 4;
#X obj 216 185 route 1 2 3 4;
#X obj 215 215 unpack;
#X obj 259 215 unpack;
#X obj 303 215 unpack;
#X obj 346 215 unpack;
#X floatatom 259 241 5 0 0 0 - - -;
#X floatatom 303 241 5 0 0 0 - - -;
#X floatatom 346 242 5 0 0 0 - - -;
#X obj 215 281 osc~;
#X obj 261 280 osc~;
#X obj 240 357 dac~;
#X obj 302 279 osc~;
#X obj 345 279 osc~;
#X obj 251 316 bp~ 200 1;
#X obj 125 89 adc~;
#X floatatom 355 322 5 0 0 0 - - -;
#X connect 0 0 10 0;
#X connect 1 4 2 0;
#X connect 2 0 3 0;
#X connect 2 1 4 0;
#X connect 2 2 5 0;
#X connect 2 3 6 0;
#X connect 3 0 0 0;
#X connect 4 0 7 0;
#X connect 5 0 8 0;
#X connect 6 0 9 0;
#X connect 7 0 11 0;
#X connect 8 0 13 0;
#X connect 9 0 14 0;
#X connect 10 0 15 0;
#X connect 11 0 15 0;
#X connect 13 0 15 0;
#X connect 14 0 15 0;
#X connect 15 0 12 0;
#X connect 15 0 12 1;
#X connect 16 0 1 0;
#X connect 16 1 1 0;
#X connect 17 0 15 1;
