#N canvas 313 42 1053 646 10;
#X floatatom -46 136 5 0 0 0 - - -;
#X floatatom -73 115 5 0 0 0 - - -;
#X obj -73 136 * 2;
#X obj -36 115 ctlin 44 0;
#X obj -73 93 ctlin 17 0;
#X obj -76 487 line~;
#X obj -97 510 *~;
#X obj -51 305 hradio 16 1 0 24 empty empty empty 0 -8 0 10 -262144
-1 -1 2;
#X obj -52 224 metro 500;
#X obj -51 249 f;
#X obj -14 277 + 1;
#X obj -98 554 dac~;
#X msg -21 462 0 100;
#X obj -134 74 bng 20 250 50 0 empty empty empty 17 7 0 10 -258113
-1 -1;
#X floatatom -40 179 5 0 0 0 - - -;
#X obj -41 158 ctlin 0 0;
#X msg -76 462 0.2 100;
#X obj -121 486 noise~;
#X obj -41 201 * 1;
#X msg -88 220 0;
#X obj -113 159 ctlin 60 0;
#X obj -114 179 bng 15 250 50 0 empty empty empty 17 7 0 10 -262144
-1 -1;
#X floatatom -171 446 5 0 0 0 - - -;
#X obj -97 531 *~;
#X obj -171 424 ctlin 1 0;
#X obj -51 334 select 0 1 2 3 4 5 6 7 8 9 10 11 12 13 14 15 16 17 18
19 20 21 22 23;
#X obj -51 277 mod 24;
#X obj -169 510 line~;
#X floatatom -170 491 5 0 0 0 - - -;
#X obj -171 469 * 0.005;
#X obj 334 487 line~;
#X obj 313 510 *~;
#X obj 359 305 hradio 16 1 0 24 empty empty empty 0 -8 0 10 -262144
-1 -1 16;
#X obj 358 224 metro 500;
#X obj 359 249 f;
#X obj 396 277 + 1;
#X obj 312 554 dac~;
#X msg 389 462 0 100;
#X obj 331 186 bng 15 250 50 0 empty empty empty 17 7 0 10 -262144
-1 -1;
#X msg 334 462 0.2 100;
#X obj 289 486 noise~;
#X msg 322 220 0;
#X floatatom 239 446 5 0 0 0 - - -;
#X obj 313 531 *~;
#X obj 239 424 ctlin 1 0;
#X obj 359 334 select 0 1 2 3 4 5 6 7 8 9 10 11 12 13 14 15 16 17 18
19 20 21 22 23;
#X obj 359 277 mod 24;
#X obj 241 510 line~;
#X floatatom 240 491 5 0 0 0 - - -;
#X obj 239 469 * 0.005;
#X obj 201 83 hradio 16 1 0 8 empty empty empty 0 -8 0 10 -262144 -1
-1 7;
#X obj 201 64 f;
#X obj 260 65 + 1;
#X obj 223 65 mod 8;
#X obj 201 106 select 0 1 2 3 4 5 6 7;
#X msg 201 131 0;
#X obj 431 250 +;
#X obj 98 140 * 48;
#X obj 190 36 metro 500;
#X obj 183 13 bng 15 250 50 0 empty empty empty 17 7 0 10 -262144 -1
-1;
#X msg 231 131 2;
#X msg 260 131 4;
#X msg 290 131 6;
#X msg 319 131 8;
#X msg 349 131 10;
#X msg 378 131 12;
#X msg 408 131 14;
#X msg 18 180 110;
#X obj -158 74 bng 20 250 50 0 empty empty empty 17 7 0 10 -4034 -1
-1;
#X msg -108 402 285;
#X connect 1 0 2 0;
#X connect 3 0 0 0;
#X connect 4 0 1 0;
#X connect 5 0 6 1;
#X connect 6 0 23 0;
#X connect 7 0 25 0;
#X connect 8 0 9 0;
#X connect 9 0 10 0;
#X connect 9 0 26 0;
#X connect 10 0 9 1;
#X connect 12 0 5 0;
#X connect 13 0 8 0;
#X connect 13 0 33 0;
#X connect 13 0 58 0;
#X connect 14 0 18 0;
#X connect 14 0 57 0;
#X connect 15 0 14 0;
#X connect 16 0 5 0;
#X connect 17 0 6 0;
#X connect 18 0 8 1;
#X connect 18 0 33 1;
#X connect 19 0 8 0;
#X connect 20 0 21 0;
#X connect 21 0 19 0;
#X connect 22 0 29 0;
#X connect 22 0 49 0;
#X connect 23 0 11 0;
#X connect 24 0 22 0;
#X connect 25 0 16 0;
#X connect 25 1 12 0;
#X connect 25 2 16 0;
#X connect 25 3 12 0;
#X connect 25 4 16 0;
#X connect 25 5 12 0;
#X connect 25 6 12 0;
#X connect 25 7 12 0;
#X connect 25 8 16 0;
#X connect 25 9 12 0;
#X connect 25 10 16 0;
#X connect 25 11 12 0;
#X connect 25 12 12 0;
#X connect 25 13 12 0;
#X connect 25 14 16 0;
#X connect 25 15 12 0;
#X connect 25 16 12 0;
#X connect 25 17 12 0;
#X connect 25 18 16 0;
#X connect 25 19 12 0;
#X connect 25 20 16 0;
#X connect 25 21 12 0;
#X connect 26 0 7 0;
#X connect 27 0 23 1;
#X connect 28 0 27 0;
#X connect 29 0 28 0;
#X connect 30 0 31 1;
#X connect 31 0 43 0;
#X connect 32 0 45 0;
#X connect 33 0 34 0;
#X connect 34 0 35 0;
#X connect 34 0 56 0;
#X connect 35 0 34 1;
#X connect 37 0 30 0;
#X connect 38 0 33 0;
#X connect 39 0 30 0;
#X connect 40 0 31 0;
#X connect 41 0 33 0;
#X connect 42 0 49 0;
#X connect 43 0 36 1;
#X connect 44 0 42 0;
#X connect 45 0 39 0;
#X connect 45 1 37 0;
#X connect 45 2 39 0;
#X connect 45 3 37 0;
#X connect 45 4 39 0;
#X connect 45 5 37 0;
#X connect 45 6 37 0;
#X connect 45 7 37 0;
#X connect 45 8 39 0;
#X connect 45 9 37 0;
#X connect 45 10 39 0;
#X connect 45 11 37 0;
#X connect 45 12 37 0;
#X connect 45 13 37 0;
#X connect 45 14 39 0;
#X connect 45 15 37 0;
#X connect 45 16 37 0;
#X connect 45 17 37 0;
#X connect 45 18 39 0;
#X connect 45 19 37 0;
#X connect 45 20 39 0;
#X connect 45 21 37 0;
#X connect 46 0 32 0;
#X connect 47 0 43 1;
#X connect 48 0 47 0;
#X connect 49 0 48 0;
#X connect 50 0 54 0;
#X connect 51 0 52 0;
#X connect 51 0 53 0;
#X connect 52 0 51 1;
#X connect 53 0 50 0;
#X connect 54 0 55 0;
#X connect 54 1 60 0;
#X connect 54 2 61 0;
#X connect 54 3 62 0;
#X connect 54 4 63 0;
#X connect 54 5 64 0;
#X connect 54 6 65 0;
#X connect 54 7 66 0;
#X connect 55 0 56 1;
#X connect 56 0 46 0;
#X connect 57 0 58 1;
#X connect 58 0 51 0;
#X connect 59 0 58 0;
#X connect 60 0 56 1;
#X connect 61 0 56 1;
#X connect 62 0 56 1;
#X connect 63 0 56 1;
#X connect 64 0 56 1;
#X connect 65 0 56 1;
#X connect 66 0 56 1;
#X connect 67 0 18 0;
#X connect 67 0 57 0;
#X connect 68 0 69 0;
#X connect 68 0 67 0;
#X connect 69 0 29 0;
#X connect 69 0 49 0;
