#N canvas 56 109 1233 711 10;
#X obj 196 145 hradio 15 1 0 16 empty empty empty 0 -8 0 10 -262144
-1 -1 2;
#X obj 210 32 bng 15 250 50 0 empty empty empty 17 7 0 10 -262144 -1
-1;
#X obj 204 81 f;
#X obj 244 81 + 1;
#X msg 235 47 0;
#X floatatom 230 412 5 0 0 0 - - -;
#X obj 225 287 f;
#X obj 313 206 t b b;
#X floatatom 269 412 5 0 0 0 - - -;
#X floatatom 307 412 5 0 0 0 - - -;
#X obj 346 564 noteout 1;
#X floatatom 173 340 5 0 0 0 - - -;
#X obj 194 214 t b b;
#X obj 242 215 t b b;
#X obj 119 32 tgl 15 0 empty empty empty 17 7 0 10 -262144 -1 -1 1
1;
#X obj 107 73 metro 250;
#X obj 196 166 route 0 2 4 6 8 10 12 14;
#X obj 418 289 f;
#X obj 506 208 t b b;
#X obj 387 216 t b b;
#X obj 435 217 t b b;
#X obj 389 168 route 1 3 5 7 9 11 13 15;
#X floatatom 150 32 5 0 0 0 - - -;
#X obj 517 321 spigot;
#X obj 596 267 tgl 15 0 empty empty empty 17 7 0 10 -262144 -1 -1 0
1;
#X obj 310 308 spigot;
#X obj 426 314 spigot;
#X obj 242 310 spigot;
#X obj 554 254 tgl 15 0 empty empty empty 17 7 0 10 -262144 -1 -1 1
1;
#X obj -128 203 hradio 15 1 0 16 empty empty empty 0 -8 0 10 -262144
-1 -1 2;
#X obj 398 83 moses 16;
#X floatatom 388 117 5 0 0 0 - - -;
#X obj 205 114 % 32;
#X floatatom 454 115 5 0 0 0 - - -;
#X obj 482 81 - 16;
#X obj 13 142 f;
#X obj 53 142 + 1;
#X msg 30 106 0;
#X obj 14 163 % 16;
#X obj -134 221 route 0 1 2 3 4 5 6 7 8 9 10 11 12 13 14 15;
#X msg 109 315 7;
#X obj 20 362 +;
#X obj 78 389 - 0;
#X obj 455 144 bng 15 250 50 0 empty empty empty 17 7 0 10 -262144
-1 -1;
#X obj 495 147 bng 15 250 50 0 empty empty empty 17 7 0 10 -262144
-1 -1;
#X msg 499 252 0;
#X msg 306 250 0;
#X obj 308 228 delay 10;
#X obj 510 233 delay 10;
#X obj 50 28 bng 15 250 50 0 empty empty empty 17 7 0 10 -262144 -1
-1;
#X floatatom -47 452 5 0 0 0 - - -;
#X msg 64 308 0;
#X obj 669 154 hradio 15 1 0 16 empty empty empty 0 -8 0 10 -262144
-1 -1 15;
#X floatatom 703 421 5 0 0 0 - - -;
#X obj 698 296 f;
#X obj 786 215 t b b;
#X floatatom 742 421 5 0 0 0 - - -;
#X floatatom 780 421 5 0 0 0 - - -;
#X floatatom 646 349 5 0 0 0 - - -;
#X obj 667 223 t b b;
#X obj 715 224 t b b;
#X obj 669 175 route 0 2 4 6 8 10 12 14;
#X obj 891 298 f;
#X obj 979 217 t b b;
#X obj 860 225 t b b;
#X obj 908 226 t b b;
#X obj 862 177 route 1 3 5 7 9 11 13 15;
#X obj 990 330 spigot;
#X obj 1069 276 tgl 15 0 empty empty empty 17 7 0 10 -262144 -1 -1
1 1;
#X obj 783 317 spigot;
#X obj 899 323 spigot;
#X obj 715 319 spigot;
#X obj 1027 263 tgl 15 0 empty empty empty 17 7 0 10 -262144 -1 -1
0 1;
#X msg 972 261 0;
#X msg 779 259 0;
#X obj 781 237 delay 10;
#X obj 983 242 delay 10;
#X msg 165 264 12;
#X msg 358 266 12;
#X msg 638 273 12;
#X msg 831 275 12;
#X msg -132 269 40;
#X msg -105 270 33;
#X msg -71 269 26;
#X msg -44 270 38;
#X msg -12 264 31;
#X msg 15 265 43;
#X msg 51 266 36;
#X msg 86 264 48;
#X obj 119 123 / 1;
#X obj 214 458 makenote 30 250;
#X obj 687 467 makenote 30 250;
#X msg 157 386 12;
#X msg 120 372 12;
#X msg 112 287 12;
#X obj 83 453 makenote 80 250;
#X obj 279 288 + 5;
#X obj 472 290 + 5;
#X obj 752 297 + 5;
#X obj 945 299 + 5;
#X msg 198 267 -7;
#X msg 393 268 -7;
#X msg 671 276 -7;
#X msg 866 276 -7;
#X obj 769 350 + 64;
#X obj 733 350 + 59;
#X obj 698 348 + 52;
#X obj 448 338 + 64;
#X obj 408 337 + 59;
#X obj 373 335 + 52;
#X obj 225 339 + 52;
#X obj 260 341 + 59;
#X obj 296 341 + 64;
#X floatatom 963 515 5 0 0 0 - - -;
#X obj 846 344 + 52;
#X obj 881 346 + 59;
#X obj 921 347 + 64;
#X connect 0 0 16 0;
#X connect 0 0 21 0;
#X connect 1 0 2 0;
#X connect 2 0 3 0;
#X connect 2 0 32 0;
#X connect 3 0 2 1;
#X connect 4 0 2 1;
#X connect 5 0 90 0;
#X connect 6 0 11 0;
#X connect 6 0 25 0;
#X connect 6 0 27 0;
#X connect 6 0 96 0;
#X connect 6 0 110 0;
#X connect 7 0 13 0;
#X connect 7 1 47 0;
#X connect 8 0 90 0;
#X connect 9 0 90 0;
#X connect 12 0 77 0;
#X connect 12 1 6 0;
#X connect 13 0 100 0;
#X connect 13 1 6 0;
#X connect 14 0 15 0;
#X connect 15 0 2 0;
#X connect 15 0 35 0;
#X connect 16 0 13 0;
#X connect 16 1 12 0;
#X connect 16 2 13 0;
#X connect 16 3 12 0;
#X connect 16 4 13 0;
#X connect 16 5 12 0;
#X connect 16 6 13 0;
#X connect 16 7 7 0;
#X connect 17 0 23 0;
#X connect 17 0 26 0;
#X connect 17 0 97 0;
#X connect 17 0 109 0;
#X connect 18 0 19 0;
#X connect 18 1 48 0;
#X connect 19 0 78 0;
#X connect 19 1 17 0;
#X connect 20 0 101 0;
#X connect 20 1 17 0;
#X connect 21 0 20 0;
#X connect 21 1 19 0;
#X connect 21 2 20 0;
#X connect 21 3 19 0;
#X connect 21 4 20 0;
#X connect 21 5 19 0;
#X connect 21 6 20 0;
#X connect 21 7 18 0;
#X connect 22 0 15 1;
#X connect 22 0 89 0;
#X connect 23 0 107 0;
#X connect 24 0 23 1;
#X connect 24 0 25 1;
#X connect 25 0 112 0;
#X connect 26 0 108 0;
#X connect 27 0 111 0;
#X connect 28 0 26 1;
#X connect 28 0 27 1;
#X connect 29 0 39 0;
#X connect 30 0 31 0;
#X connect 30 1 34 0;
#X connect 31 0 0 0;
#X connect 31 0 43 0;
#X connect 32 0 30 0;
#X connect 33 0 44 0;
#X connect 33 0 52 0;
#X connect 34 0 33 0;
#X connect 35 0 36 0;
#X connect 35 0 38 0;
#X connect 36 0 35 1;
#X connect 37 0 35 1;
#X connect 37 0 2 1;
#X connect 38 0 29 0;
#X connect 39 0 81 0;
#X connect 39 0 94 0;
#X connect 39 1 81 0;
#X connect 39 1 51 0;
#X connect 39 2 82 0;
#X connect 39 2 94 0;
#X connect 39 3 82 0;
#X connect 39 3 51 0;
#X connect 39 4 83 0;
#X connect 39 4 94 0;
#X connect 39 5 83 0;
#X connect 39 5 51 0;
#X connect 39 6 84 0;
#X connect 39 6 94 0;
#X connect 39 7 84 0;
#X connect 39 7 51 0;
#X connect 39 8 85 0;
#X connect 39 8 94 0;
#X connect 39 9 85 0;
#X connect 39 9 51 0;
#X connect 39 10 86 0;
#X connect 39 10 94 0;
#X connect 39 11 86 0;
#X connect 39 11 51 0;
#X connect 39 12 87 0;
#X connect 39 12 94 0;
#X connect 39 13 87 0;
#X connect 39 13 51 0;
#X connect 39 14 88 0;
#X connect 39 14 94 0;
#X connect 39 15 88 0;
#X connect 39 15 51 0;
#X connect 40 0 41 1;
#X connect 41 0 42 0;
#X connect 42 0 50 0;
#X connect 42 0 95 0;
#X connect 43 0 93 0;
#X connect 44 0 92 0;
#X connect 45 0 17 1;
#X connect 46 0 6 1;
#X connect 47 0 46 0;
#X connect 48 0 45 0;
#X connect 49 0 2 0;
#X connect 49 0 35 0;
#X connect 51 0 41 1;
#X connect 52 0 61 0;
#X connect 52 0 66 0;
#X connect 53 0 91 0;
#X connect 54 0 58 0;
#X connect 54 0 69 0;
#X connect 54 0 71 0;
#X connect 54 0 98 0;
#X connect 54 0 106 0;
#X connect 55 0 60 0;
#X connect 55 1 75 0;
#X connect 56 0 91 0;
#X connect 57 0 91 0;
#X connect 59 0 79 0;
#X connect 59 1 54 0;
#X connect 60 0 102 0;
#X connect 60 1 54 0;
#X connect 61 0 60 0;
#X connect 61 1 59 0;
#X connect 61 2 60 0;
#X connect 61 3 59 0;
#X connect 61 4 60 0;
#X connect 61 5 59 0;
#X connect 61 6 60 0;
#X connect 61 7 55 0;
#X connect 62 0 67 0;
#X connect 62 0 70 0;
#X connect 62 0 99 0;
#X connect 62 0 114 0;
#X connect 63 0 64 0;
#X connect 63 1 76 0;
#X connect 64 0 80 0;
#X connect 64 1 62 0;
#X connect 65 0 103 0;
#X connect 65 1 62 0;
#X connect 66 0 65 0;
#X connect 66 1 64 0;
#X connect 66 2 65 0;
#X connect 66 3 64 0;
#X connect 66 4 65 0;
#X connect 66 5 64 0;
#X connect 66 6 65 0;
#X connect 66 7 63 0;
#X connect 67 0 116 0;
#X connect 68 0 67 1;
#X connect 68 0 69 1;
#X connect 69 0 104 0;
#X connect 70 0 115 0;
#X connect 71 0 105 0;
#X connect 72 0 70 1;
#X connect 72 0 71 1;
#X connect 73 0 62 1;
#X connect 74 0 54 1;
#X connect 75 0 74 0;
#X connect 76 0 73 0;
#X connect 77 0 96 1;
#X connect 78 0 97 1;
#X connect 79 0 98 1;
#X connect 80 0 99 1;
#X connect 81 0 41 0;
#X connect 82 0 41 0;
#X connect 83 0 41 0;
#X connect 84 0 41 0;
#X connect 85 0 41 0;
#X connect 86 0 41 0;
#X connect 87 0 41 0;
#X connect 88 0 41 0;
#X connect 90 0 10 0;
#X connect 90 1 10 1;
#X connect 91 0 10 0;
#X connect 91 1 10 1;
#X connect 92 0 42 1;
#X connect 93 0 42 1;
#X connect 94 0 41 1;
#X connect 95 0 10 0;
#X connect 95 1 10 1;
#X connect 96 0 6 1;
#X connect 97 0 17 1;
#X connect 98 0 54 1;
#X connect 99 0 62 1;
#X connect 100 0 96 1;
#X connect 101 0 97 1;
#X connect 102 0 98 1;
#X connect 103 0 99 1;
#X connect 104 0 57 0;
#X connect 105 0 56 0;
#X connect 106 0 53 0;
#X connect 107 0 9 0;
#X connect 108 0 8 0;
#X connect 109 0 5 0;
#X connect 110 0 5 0;
#X connect 111 0 8 0;
#X connect 112 0 9 0;
#X connect 114 0 53 0;
#X connect 115 0 56 0;
#X connect 116 0 57 0;
